<svg id="Layer_5" data-name="Layer 5" xmlns="http://www.w3.org/2000/svg" xmlns:xlink="http://www.w3.org/1999/xlink" viewBox="0 0 1411.51 566.93"><defs><clipPath id="clip-path"><rect x="-0.76" y="11.83" width="556.86" height="556.86" style="fill:none"/></clipPath></defs><g style="clip-path:url(#clip-path)"><g style="clip-path:url(#clip-path)"><path d="M289.7,544.08a.41.41,0,0,1,0-.48c.4.16.39.32,0,.48" style="fill:#e4b2b0"/><path d="M149.07,252.15V528.87H72.67a41.22,41.22,0,0,1-41.23-41.22V369.72l1.56-1.5Z" style="fill:#ed1c24"/><path d="M303.38,150.72H31.44V77.66A41.22,41.22,0,0,1,72.67,36.43H189.09Z" style="fill:#45519b"/><polygon points="208.76 168.02 31.44 345.27 31.44 168.02 208.76 168.02" style="fill:#834899"/><path d="M523.89,77.66v118.5L410.06,309.93V36.43h72.6a41.22,41.22,0,0,1,41.23,41.23" style="fill:#e9ae33"/><polygon points="392.76 36.43 392.76 215.65 213.6 36.43 392.76 36.43" style="fill:#eb4632"/><rect x="238.26" y="246.45" width="31.96" height="31.96" style="fill:#fff"/><rect x="276.15" y="246.45" width="31.96" height="31.96" style="fill:#fff"/><rect x="238.26" y="284.91" width="31.96" height="31.96" style="fill:#fff"/><rect x="276.15" y="284.91" width="31.96" height="31.96" style="fill:#fff"/><path d="M523.89,220.61v136.6a41.21,41.21,0,0,1-41.23,41.17H346.11Z" style="fill:#65c3c4"/></g></g><path d="M572.87,57.17h24c16.34,0,24.36,9.06,24.36,25.7V93.11c0,16.64-8,25.69-24.36,25.69H589.2v42.33H572.87Zm24,46.79c5.21,0,8-2.38,8-9.81V81.83c0-7.43-2.81-9.8-8-9.8H589.2V104Z" style="fill:#fff"/><path d="M644.93,57.17h24.21c16.93,0,24.2,7.88,24.2,23.91v6.39c0,10.69-3.41,17.52-10.69,20.49v.3c8.17,2.52,10.84,10.25,10.84,22v18.27c0,5.05.14,8.76,1.78,12.62H678.64c-.9-2.67-1.49-4.31-1.49-12.77v-19c0-9.66-2.82-12.77-10.24-12.77h-5.64v44.55H644.93Zm22.28,44.55c6.08,0,9.79-2.67,9.79-11v-8c0-7.42-2.52-10.68-8.31-10.68h-7.42v29.69Z" style="fill:#fff"/><path d="M718.47,136.48V81.83c0-16.64,8.76-26.14,24.8-26.14s24.8,9.5,24.8,26.14v54.65c0,16.63-8.76,26.14-24.8,26.14S718.47,153.11,718.47,136.48Zm33.26,1V80.78c0-7.42-3.26-10.24-8.46-10.24s-8.46,2.82-8.46,10.24v56.73c0,7.43,3.26,10.26,8.46,10.26S751.73,144.94,751.73,137.51Z" style="fill:#fff"/><path d="M794,57.17h43.22V72H810.28v29h21.1v14.85h-21.1v45.3H794Z" style="fill:#fff"/><path d="M859.91,57.17h44.55V72H876.24V99.5h22.43v14.85H876.24v31.93h28.22v14.85H859.91Z" style="fill:#fff"/><path d="M925.58,136.48v-5.95H941v7.14c0,7.42,3.27,10.1,8.46,10.1s8.61-2.68,8.61-10.4c0-8.61-3.56-14-14.25-23.32-13.67-12-18.27-20.64-18.27-32.52,0-16.34,8.47-25.84,24.36-25.84s23.76,9.5,23.76,26.14v4.3H958.26V80.78c0-7.42-3-10.24-8.17-10.24s-8.32,2.82-8.32,9.95c0,7.57,3.72,12.92,14.4,22.28,13.67,12,18.12,20.49,18.12,33.41,0,16.93-8.62,26.44-24.65,26.44S925.58,153.11,925.58,136.48Z" style="fill:#fff"/><path d="M995.42,136.48v-5.95h15.45v7.14c0,7.42,3.27,10.1,8.46,10.1s8.61-2.68,8.61-10.4c0-8.61-3.56-14-14.25-23.32-13.67-12-18.27-20.64-18.27-32.52,0-16.34,8.47-25.84,24.36-25.84s23.76,9.5,23.76,26.14v4.3H1028.1V80.78c0-7.42-3-10.24-8.17-10.24s-8.32,2.82-8.32,9.95c0,7.57,3.72,12.92,14.4,22.28,13.67,12,18.12,20.49,18.12,33.41,0,16.93-8.62,26.44-24.65,26.44S995.42,153.11,995.42,136.48Z" style="fill:#fff"/><path d="M1068.22,57.17h16.33v104h-16.33Z" style="fill:#fff"/><path d="M1110.41,136.48V81.83c0-16.64,8.77-26.14,24.8-26.14s24.8,9.5,24.8,26.14v54.65c0,16.63-8.76,26.14-24.8,26.14S1110.41,153.11,1110.41,136.48Zm33.26,1V80.78c0-7.42-3.26-10.24-8.46-10.24s-8.46,2.82-8.46,10.24v56.73c0,7.43,3.27,10.26,8.46,10.26S1143.67,144.94,1143.67,137.51Z" style="fill:#fff"/><path d="M1185.9,57.17h20.19l16.48,62.23V57.17h14.55v104h-16.48l-20.19-75.89v75.89H1185.9Z" style="fill:#fff"/><path d="M1296.56,140.79H1277.7l-2.83,20.34h-15.14l16.93-104h22.12l16.94,104h-16.34Zm-2.08-14.12-7.42-52.42-7.28,52.42Z" style="fill:#fff"/><path d="M1338.34,57.17h16.33v89.11h26.88v14.85h-43.21Z" style="fill:#fff"/><path d="M571.26,190.82h17.8c12.45,0,17.81,5.79,17.81,17.59v4.69c0,7.86-2.51,12.89-7.86,15.07v.22c6,1.86,8,7.54,8,16.17V258c0,3.72.11,6.45,1.31,9.29H596.05c-.65-2-1.09-3.17-1.09-9.4v-14c0-7.1-2.07-9.39-7.54-9.39h-4.14v32.77h-12Zm16.38,32.77c4.48,0,7.21-2,7.21-8.08v-5.9c0-5.46-1.85-7.86-6.12-7.86h-5.45v21.84Z" style="fill:#fff"/><path d="M626.19,190.82H659v10.93H638.21V222H654.7v10.92H638.21v23.48H659v10.93H626.19Z" style="fill:#fff"/><path d="M700.56,252.32H686.7l-2.08,15H673.48l12.45-76.46H702.2l12.45,76.46h-12ZM699,241.94l-5.47-38.56-5.35,38.56Z" style="fill:#fff"/><path d="M731.24,190.82h12v65.53H763v10.93H731.24Z" style="fill:#fff"/><path d="M806,249.14v-4.36H817.4V250c0,5.46,2.4,7.43,6.23,7.43s6.33-2,6.33-7.65c0-6.33-2.62-10.26-10.49-17.15-10-8.84-13.43-15.18-13.43-23.91,0-12,6.22-19,17.91-19s17.48,7,17.48,19.22v3.17H830.06v-3.93c0-5.46-2.18-7.54-6-7.54s-6.12,2.08-6.12,7.32c0,5.57,2.73,9.5,10.6,16.39,10.05,8.84,13.32,15.07,13.32,24.57,0,12.45-6.33,19.44-18.13,19.44S806,261.38,806,249.14Z" style="fill:#fff"/><path d="M868.84,201.75H856.28V190.82h37.13v10.93H880.85v65.53h-12Z" style="fill:#fff"/><path d="M929,252.32H915.15l-2.08,15H901.93l12.45-76.46h16.27l12.46,76.46h-12Zm-1.52-10.38L922,203.38l-5.35,38.56Z" style="fill:#fff"/><path d="M964.18,201.75H951.62V190.82h37.13v10.93H976.19v65.53h-12Z" style="fill:#fff"/><path d="M1005.45,190.82h32.77v10.93h-20.76V222H1034v10.92h-16.5v23.48h20.76v10.93h-32.77Z" style="fill:#fff"/><path d="M571.26,295.92H589c12,0,17.92,6.66,17.92,18.89v7.54c0,12.23-5.9,18.89-17.92,18.89h-5.67v31.13h-12ZM589,330.32c3.83,0,5.9-1.75,5.9-7.21V314c0-5.46-2.07-7.2-5.9-7.2h-5.67v23.48Z" style="fill:#fff"/><path d="M624.22,295.92h12V327h12.89V295.92h12v76.45h-12V338H636.24v34.4h-12Z" style="fill:#fff"/><path d="M680.13,354.24V314c0-12.23,6.45-19.22,18.25-19.22s18.23,7,18.23,19.22v40.2c0,12.23-6.44,19.22-18.23,19.22S680.13,366.47,680.13,354.24Zm24.47.76V313.28c0-5.46-2.4-7.54-6.22-7.54s-6.23,2.08-6.23,7.54V355c0,5.47,2.4,7.54,6.23,7.54S704.6,360.47,704.6,355Z" style="fill:#fff"/><path d="M744.57,306.84H732V295.92h37.13v10.92H756.58v65.53h-12Z" style="fill:#fff"/><path d="M784.53,354.24V314c0-12.23,6.45-19.22,18.25-19.22S821,301.81,821,314v40.2c0,12.23-6.45,19.22-18.24,19.22S784.53,366.47,784.53,354.24ZM809,355V313.28c0-5.46-2.4-7.54-6.22-7.54s-6.23,2.08-6.23,7.54V355c0,5.47,2.4,7.54,6.23,7.54S809,360.47,809,355Z" style="fill:#fff"/><path d="M868.4,295.92h17.69c12,0,17.91,6.66,17.91,18.89v7.54c0,12.23-5.89,18.89-17.91,18.89h-5.68v31.13h-12Zm17.69,34.4c3.83,0,5.89-1.75,5.89-7.21V314c0-5.46-2.06-7.2-5.89-7.2h-5.68v23.48Z" style="fill:#fff"/><path d="M921.36,295.92h17.81c12.45,0,17.8,5.78,17.8,17.58v4.7c0,7.86-2.51,12.89-7.86,15.07v.22c6,1.85,8,7.53,8,16.16v13.44c0,3.71.1,6.44,1.3,9.28H946.16c-.65-2-1.09-3.17-1.09-9.39V349c0-7.1-2.08-9.39-7.53-9.39h-4.16v32.76h-12Zm16.4,32.76c4.47,0,7.19-2,7.19-8.08v-5.9c0-5.46-1.84-7.86-6.11-7.86h-5.46v21.84Z" style="fill:#fff"/><path d="M975.42,354.24V314c0-12.23,6.45-19.22,18.25-19.22s18.23,7,18.23,19.22v40.2c0,12.23-6.44,19.22-18.23,19.22S975.42,366.47,975.42,354.24Zm24.46.76V313.28c0-5.46-2.39-7.54-6.21-7.54s-6.23,2.08-6.23,7.54V355c0,5.47,2.4,7.54,6.23,7.54S999.88,360.47,999.88,355Z" style="fill:#fff"/><path d="M1030,354.68V313.61c0-11.8,6.12-18.79,17.69-18.79s17.7,7,17.7,18.79v8.08h-11.36v-8.85c0-5-2.41-7.1-6-7.1s-6,2.08-6,7.1v42.71c0,5,2.4,7,6,7s6-2,6-7V344.41h11.36v10.27c0,11.79-6.12,18.78-17.7,18.78S1030,366.47,1030,354.68Z" style="fill:#fff"/><path d="M1083.42,295.92h32.77v10.92h-20.75V327h16.5V338h-16.5v23.48h20.75v10.92h-32.77Z" style="fill:#fff"/><path d="M1131.69,354.24v-4.37h11.36v5.24c0,5.47,2.4,7.43,6.23,7.43s6.33-2,6.33-7.64c0-6.34-2.62-10.27-10.48-17.15-10.05-8.85-13.44-15.19-13.44-23.92,0-12,6.23-19,17.91-19s17.48,7,17.48,19.22v3.18h-11.37v-3.94c0-5.46-2.18-7.54-6-7.54s-6.13,2.08-6.13,7.32c0,5.57,2.73,9.5,10.6,16.39,10,8.85,13.32,15.07,13.32,24.57,0,12.45-6.33,19.44-18.13,19.44S1131.69,366.47,1131.69,354.24Z" style="fill:#fff"/><path d="M1183,354.24v-4.37h11.36v5.24c0,5.47,2.4,7.43,6.23,7.43s6.33-2,6.33-7.64c0-6.34-2.62-10.27-10.48-17.15-10-8.85-13.44-15.19-13.44-23.92,0-12,6.23-19,17.91-19s17.48,7,17.48,19.22v3.18h-11.36v-3.94c0-5.46-2.18-7.54-6-7.54s-6.13,2.08-6.13,7.32c0,5.57,2.74,9.5,10.6,16.39,10,8.85,13.33,15.07,13.33,24.57,0,12.45-6.34,19.44-18.14,19.44S1183,366.47,1183,354.24Z" style="fill:#fff"/><path d="M1235.65,354.24V314c0-12.23,6.45-19.22,18.25-19.22s18.24,7,18.24,19.22v40.2c0,12.23-6.45,19.22-18.24,19.22S1235.65,366.47,1235.65,354.24Zm24.47.76V313.28c0-5.46-2.4-7.54-6.22-7.54s-6.23,2.08-6.23,7.54V355c0,5.47,2.4,7.54,6.23,7.54S1260.12,360.47,1260.12,355Z" style="fill:#fff"/><path d="M1291.13,295.92h17.81c12.44,0,17.8,5.78,17.8,17.58v4.7c0,7.86-2.52,12.89-7.87,15.07v.22c6,1.85,8,7.53,8,16.16v13.44c0,3.71.11,6.44,1.31,9.28h-12.22c-.66-2-1.1-3.17-1.1-9.39V349c0-7.1-2.07-9.39-7.53-9.39h-4.15v32.76h-12Zm16.39,32.76c4.47,0,7.2-2,7.2-8.08v-5.9c0-5.46-1.86-7.86-6.12-7.86h-5.45v21.84Z" style="fill:#fff"/><path d="M1344,354.24v-4.37h11.36v5.24c0,5.47,2.4,7.43,6.23,7.43s6.33-2,6.33-7.64c0-6.34-2.61-10.27-10.48-17.15-10.05-8.85-13.44-15.19-13.44-23.92,0-12,6.23-19,17.92-19s17.47,7,17.47,19.22v3.18H1368v-3.94c0-5.46-2.18-7.54-6-7.54s-6.12,2.08-6.12,7.32c0,5.57,2.73,9.5,10.6,16.39,10,8.85,13.32,15.07,13.32,24.57,0,12.45-6.33,19.44-18.13,19.44S1344,366.47,1344,354.24Z" style="fill:#fff"/></svg>