<svg id="Layer_1" data-name="Layer 1" xmlns="http://www.w3.org/2000/svg" viewBox="0 0 500 206.97"><path d="M20.56,11.43H67.12l42.42,45.05H4.42V27.57A16.14,16.14,0,0,1,20.56,11.43Z" style="fill:#47509d"/><polygon points="143.33 81.82 143.33 11.43 70.5 11.43 143.33 81.82" style="fill:#ef4333"/><path d="M193.16,28.79V75.34l-45,42.42V12.65H177A16.13,16.13,0,0,1,193.16,28.79Z" style="fill:#efb134"/><path d="M4.42,185.38V137.87L49.47,94.58V201.85H20.56A16.31,16.31,0,0,1,4.42,185.38Z" style="fill:#cc1e43"/><polygon points="76.03 61.17 4.42 61.17 4.42 132.97 76.03 61.17" style="fill:#87449b"/><path d="M193.16,134.66V81.82l-68.6,69h54.61C186.9,150.8,193.16,143.57,193.16,134.66Z" style="fill:#68c6c6"/><rect x="82.51" y="91.6" width="13.23" height="13.23"/><rect x="82.51" y="106.9" width="13.23" height="13.23"/><rect x="97.57" y="106.9" width="13.23" height="13.23"/><rect x="97.57" y="91.6" width="13.23" height="13.23"/><path d="M226.32,45h-7.17v14.9h-7V18.5h14.7A10.62,10.62,0,0,1,235,21.71q3,3.2,3,9.92Q238,39,235,42T226.32,45Zm3.29-8.63c.92-1,1.38-2.57,1.38-4.72s-.47-3.69-1.39-4.61a5.26,5.26,0,0,0-3.88-1.38h-6.57V37.9h6.57A5.09,5.09,0,0,0,229.61,36.41Z"/><path d="M255.28,36.69q-3.94,0-5.29,3.15a14.58,14.58,0,0,0-.76,5.45V59.94h-6.57V29.3h6.23v5.34a17,17,0,0,1,2.63-4.19,6.33,6.33,0,0,1,4.76-1.88h.31l.56,0v8.21c-.41,0-.77-.09-1.1-.11Z"/><path d="M281.79,33.18A20.66,20.66,0,0,1,285,44.67a20.53,20.53,0,0,1-3.16,11.54q-3.17,4.8-9.6,4.8t-9.59-4.8a20.53,20.53,0,0,1-3.16-11.54,20.66,20.66,0,0,1,3.16-11.49q3.16-4.86,9.59-4.87T281.79,33.18Zm-9.62,1.91a4.91,4.91,0,0,0-4.41,2.49,13.5,13.5,0,0,0-1.54,7.09,13.61,13.61,0,0,0,1.54,7.12,5.13,5.13,0,0,0,8.81,0,13.72,13.72,0,0,0,1.53-7.12,13.6,13.6,0,0,0-1.53-7.09A4.88,4.88,0,0,0,272.17,35.09Z"/><path d="M301.32,18.25v6.52a17.66,17.66,0,0,0-1.85-.12,1.88,1.88,0,0,0-1.78.7,2.88,2.88,0,0,0-.5,1.64v2.59h4.29v5.65h-4.29V59.94h-6.5V35.23h-3.64V29.58h3.57v-2q0-4.92,1.36-6.77,1.41-2.76,6.84-2.76c.41,0,.79,0,1.12,0Z"/><path d="M326.59,50.94a11.2,11.2,0,0,1-2.31,5.54,10.42,10.42,0,0,1-9,4.47,11.34,11.34,0,0,1-8.4-3.77q-3.63-3.76-3.64-12.25,0-8,3.29-12.2a10.3,10.3,0,0,1,8.53-4.25,11,11,0,0,1,5.6,1.44,10.81,10.81,0,0,1,4.13,4.52,17.92,17.92,0,0,1,1.9,6.33,52.1,52.1,0,0,1,.2,6.07H309.83c.09,3.07.88,5.23,2.36,6.46a4.83,4.83,0,0,0,3.25,1.16,4.2,4.2,0,0,0,3.28-1.41,6.9,6.9,0,0,0,1.21-2.11Zm-6.46-9.39a7.84,7.84,0,0,0-1.56-4.82,4.44,4.44,0,0,0-3.49-1.64,4.07,4.07,0,0,0-3.52,1.74A9.93,9.93,0,0,0,310,41.55Z"/><path d="M348.5,30.7c1.95,1.54,3.08,4.18,3.37,7.93h-6.53a5.39,5.39,0,0,0-.71-2.44A4.06,4.06,0,0,0,341,34.55a4.55,4.55,0,0,0-3,.82,2.5,2.5,0,0,0-.9,1.91,2.21,2.21,0,0,0,1,2q1,.64,6.8,2.22a11.71,11.71,0,0,1,5.84,3.4,8.71,8.71,0,0,1,1.92,5.76,10.31,10.31,0,0,1-2.76,7.44Q347,61,341.27,61c-3.93,0-6.82-1-8.69-3a11,11,0,0,1-2.81-7.77h6.62a6.12,6.12,0,0,0,.89,3q1.22,1.61,4.49,1.6a5.78,5.78,0,0,0,3.06-.7A2.33,2.33,0,0,0,346,52a2.43,2.43,0,0,0-.92-2c-.61-.47-2.87-1.27-6.8-2.42q-4.23-1.29-6-3.23a7.9,7.9,0,0,1-1.74-5.51,10.58,10.58,0,0,1,2.71-7.29,9.68,9.68,0,0,1,7.64-3.05A12.18,12.18,0,0,1,348.5,30.7Z"/><path d="M374.58,30.7q2.93,2.31,3.36,7.93h-6.52a5.39,5.39,0,0,0-.71-2.44A4.06,4.06,0,0,0,367,34.55a4.5,4.5,0,0,0-3,.82,2.5,2.5,0,0,0-.9,1.91,2.21,2.21,0,0,0,1,2q1,.64,6.8,2.22a11.75,11.75,0,0,1,5.84,3.4,8.71,8.71,0,0,1,1.92,5.76,10.31,10.31,0,0,1-2.76,7.44Q373.11,61,367.34,61t-8.69-3a11,11,0,0,1-2.8-7.77h6.62a6,6,0,0,0,.89,3c.81,1.07,2.3,1.6,4.49,1.6a5.72,5.72,0,0,0,3-.7A2.32,2.32,0,0,0,372,52a2.43,2.43,0,0,0-.92-2c-.61-.47-2.88-1.27-6.8-2.42-2.82-.86-4.82-1.94-6-3.23a7.9,7.9,0,0,1-1.74-5.51,10.58,10.58,0,0,1,2.72-7.29A9.66,9.66,0,0,1,367,28.43,12.19,12.19,0,0,1,374.58,30.7Z"/><path d="M390.17,18.25v7.39h-6.62V18.25Zm0,11.05V59.94h-6.62V29.3Z"/><path d="M417.3,33.18a20.66,20.66,0,0,1,3.16,11.49,20.53,20.53,0,0,1-3.16,11.54q-3.17,4.8-9.6,4.8t-9.59-4.8A20.53,20.53,0,0,1,395,44.67a20.66,20.66,0,0,1,3.16-11.49q3.17-4.86,9.59-4.87T417.3,33.18Zm-9.62,1.91a4.9,4.9,0,0,0-4.41,2.49,13.5,13.5,0,0,0-1.54,7.09,13.61,13.61,0,0,0,1.54,7.12,5.13,5.13,0,0,0,8.81,0,13.72,13.72,0,0,0,1.53-7.12,13.6,13.6,0,0,0-1.53-7.09A4.89,4.89,0,0,0,407.68,35.09Z"/><path d="M436.87,35.23q-3.31,0-4.56,3.46a14.5,14.5,0,0,0-.64,4.66V59.94h-6.5V29.35h6.3v4.47a13.33,13.33,0,0,1,2.38-3.4,7.25,7.25,0,0,1,5.1-1.85,8.54,8.54,0,0,1,6.33,2.48c1.64,1.66,2.47,4.41,2.47,8.26V59.94h-6.69V41.3a10.23,10.23,0,0,0-.53-3.71A3.61,3.61,0,0,0,436.87,35.23Z"/><path d="M454.7,32.61q2.6-4,8.89-4a13.41,13.41,0,0,1,7.28,2q3.18,2,3.18,7.54v14c0,1,0,2.16.05,3.54a5.08,5.08,0,0,0,.39,2.14,2.46,2.46,0,0,0,1,.93v1.18h-7.1a9.85,9.85,0,0,1-.41-1.74c-.08-.55-.14-1.17-.19-1.86a14.09,14.09,0,0,1-3.11,3.06,8,8,0,0,1-4.76,1.49,7.32,7.32,0,0,1-5.6-2.37,9.53,9.53,0,0,1-2.21-6.73q0-5.65,3.55-8.18a13.6,13.6,0,0,1,5.72-2l2.22-.34a8.75,8.75,0,0,0,2.59-.7,2.42,2.42,0,0,0,1.4-2.28,2.92,2.92,0,0,0-1.07-2.6,5.58,5.58,0,0,0-3.12-.72,3.7,3.7,0,0,0-3.28,1.41,6.69,6.69,0,0,0-.91,2.81h-6.3A13.67,13.67,0,0,1,454.7,32.61Zm4.86,21.54a3,3,0,0,0,2.24.93,5.84,5.84,0,0,0,3.88-1.52c1.19-1,1.8-2.86,1.85-5.54V45a6.5,6.5,0,0,1-1.25.77,8.86,8.86,0,0,1-1.73.55l-1.47.34a8.33,8.33,0,0,0-2.95,1.09,3.94,3.94,0,0,0-1.51,3.41A3.94,3.94,0,0,0,459.56,54.15Z"/><path d="M480,18.5h6.52V59.94H480Z"/><path d="M222.28,88.88h-5.21V100h-4.93V71.57H224a9.38,9.38,0,0,1,3.91.74,6.36,6.36,0,0,1,2.32,2,9.25,9.25,0,0,1,1.24,2.4,8.9,8.9,0,0,1,.46,3,9.77,9.77,0,0,1-.87,4,5.12,5.12,0,0,1-2.86,2.77,4.76,4.76,0,0,1,2.36,2.25,10.75,10.75,0,0,1,.7,4.45v1.92a16.78,16.78,0,0,0,.13,2.64,2.44,2.44,0,0,0,.92,1.63V100h-5.55q-.24-.95-.33-1.53a16.3,16.3,0,0,1-.21-2.45l0-2.64c0-1.82-.3-3-.84-3.64A4,4,0,0,0,222.28,88.88Zm3.06-5.18c1-.54,1.51-1.61,1.51-3.21s-.49-2.88-1.46-3.47a4.7,4.7,0,0,0-2.45-.5h-5.87v7.64h5.72A5.47,5.47,0,0,0,225.34,83.7Z"/><path d="M251.15,93.86a7.48,7.48,0,0,1-1.65,3.8,7.56,7.56,0,0,1-6.42,3.08,8.31,8.31,0,0,1-6-2.59c-1.74-1.73-2.6-4.54-2.6-8.42,0-3.65.78-6.44,2.35-8.39a7.47,7.47,0,0,1,6.1-2.91,8.24,8.24,0,0,1,4,1,7.67,7.67,0,0,1,2.95,3.11,11.89,11.89,0,0,1,1.36,4.35,31.73,31.73,0,0,1,.14,4.17H239.17q.09,3.17,1.68,4.44a3.55,3.55,0,0,0,2.33.79,3.06,3.06,0,0,0,2.34-1,4.6,4.6,0,0,0,.87-1.45Zm-4.61-6.45a5.21,5.21,0,0,0-1.13-3.31A3.18,3.18,0,0,0,242.92,83a3,3,0,0,0-2.52,1.19,6.61,6.61,0,0,0-1.12,3.25Z"/><path d="M255.2,81.27c1.23-1.86,3.35-2.78,6.35-2.78a9.84,9.84,0,0,1,5.21,1.37c1.52.91,2.28,2.64,2.28,5.17v9.66q0,1,0,2.43a3.53,3.53,0,0,0,.28,1.47,1.72,1.72,0,0,0,.69.64V100H265a6.71,6.71,0,0,1-.29-1.2c-.06-.37-.1-.8-.14-1.27a10,10,0,0,1-2.22,2.1,5.89,5.89,0,0,1-3.41,1,5.31,5.31,0,0,1-4-1.64,6.33,6.33,0,0,1-1.58-4.62q0-3.89,2.53-5.62a10.08,10.08,0,0,1,4.1-1.35l1.59-.24a6.21,6.21,0,0,0,1.85-.48,1.65,1.65,0,0,0,1-1.56,2,2,0,0,0-.76-1.79,4.16,4.16,0,0,0-2.24-.49,2.69,2.69,0,0,0-2.34,1,4.43,4.43,0,0,0-.66,1.94h-4.5A9,9,0,0,1,255.2,81.27Zm3.47,14.79a2.2,2.2,0,0,0,1.61.64,4.29,4.29,0,0,0,2.77-1q1.27-1.05,1.32-3.81v-2a4.35,4.35,0,0,1-.89.53,5.77,5.77,0,0,1-1.24.38l-1.05.23a6.07,6.07,0,0,0-2.11.76,3.2,3.2,0,0,0-.41,4.36Z"/><path d="M273.28,71.57H278V100h-4.67Z"/><path d="M309,87.6H297.27v7.32h13.37V100h-18.3V71.57h17.71v5H297.27v6H309Z"/><path d="M326.49,80c1.4,1.06,2.2,2.87,2.41,5.45h-4.67a3.71,3.71,0,0,0-.51-1.68,2.94,2.94,0,0,0-2.62-1.12,3.34,3.34,0,0,0-2.17.56,1.69,1.69,0,0,0-.65,1.31,1.48,1.48,0,0,0,.69,1.37,25.78,25.78,0,0,0,4.87,1.53A8.39,8.39,0,0,1,328,89.71a5.79,5.79,0,0,1,1.38,4,6.9,6.9,0,0,1-2,5.1q-2,2-6.1,2c-2.8,0-4.87-.69-6.21-2.09a7.41,7.41,0,0,1-2-5.34h4.74a4.05,4.05,0,0,0,.63,2.08,3.88,3.88,0,0,0,3.21,1.11,4.28,4.28,0,0,0,2.19-.49,1.57,1.57,0,0,0,.81-1.45,1.68,1.68,0,0,0-.65-1.41,24.31,24.31,0,0,0-4.87-1.66,9.44,9.44,0,0,1-4.27-2.22,5.29,5.29,0,0,1-1.25-3.78A6.91,6.91,0,0,1,321,78.39,9,9,0,0,1,326.49,80Z"/><path d="M341,96.12v4.11l-2.22.1q-3.3.14-4.52-1.35a4.55,4.55,0,0,1-.78-2.92v-13H331V79.18h2.49V73.31h4.62v5.87H341V83.1h-2.9V94.23a2.81,2.81,0,0,0,.28,1.61c.18.21.75.32,1.7.32h.45Z"/><path d="M344.68,81.27c1.24-1.86,3.36-2.78,6.36-2.78a9.86,9.86,0,0,1,5.21,1.37c1.51.91,2.27,2.64,2.27,5.17v9.66c0,.67,0,1.48,0,2.43a3.57,3.57,0,0,0,.27,1.47,1.86,1.86,0,0,0,.69.64V100h-5.08a6.71,6.71,0,0,1-.29-1.2c0-.37-.1-.8-.13-1.27a10.31,10.31,0,0,1-2.23,2.1,5.86,5.86,0,0,1-3.4,1,5.34,5.34,0,0,1-4-1.64,6.38,6.38,0,0,1-1.58-4.62q0-3.89,2.54-5.62a10,10,0,0,1,4.09-1.35l1.59-.24a6.21,6.21,0,0,0,1.85-.48,1.63,1.63,0,0,0,1-1.56,2,2,0,0,0-.76-1.79,4.14,4.14,0,0,0-2.24-.49,2.69,2.69,0,0,0-2.34,1,4.56,4.56,0,0,0-.65,1.94h-4.51A9.08,9.08,0,0,1,344.68,81.27Zm3.48,14.79a2.18,2.18,0,0,0,1.6.64,4.31,4.31,0,0,0,2.78-1q1.26-1.05,1.32-3.81v-2a4.7,4.7,0,0,1-.9.53,5.84,5.84,0,0,1-1.23.38l-1.05.23a6,6,0,0,0-2.11.76,3.18,3.18,0,0,0-.41,4.36Z"/><path d="M370.84,96.12v4.11l-2.21.1c-2.21.09-3.71-.36-4.52-1.35a4.49,4.49,0,0,1-.79-2.92v-13h-2.49V79.18h2.49V73.31h4.62v5.87h2.9V83.1h-2.9V94.23a2.81,2.81,0,0,0,.28,1.61c.18.21.75.32,1.7.32h.45Z"/><path d="M389.11,93.86a7.48,7.48,0,0,1-1.65,3.8,7.56,7.56,0,0,1-6.42,3.08,8.31,8.31,0,0,1-6-2.59c-1.74-1.73-2.6-4.54-2.6-8.42,0-3.65.78-6.44,2.35-8.39a7.47,7.47,0,0,1,6.1-2.91,8.24,8.24,0,0,1,4,1,7.67,7.67,0,0,1,2.95,3.11,11.89,11.89,0,0,1,1.36,4.35,31.73,31.73,0,0,1,.14,4.17H377.13q.09,3.17,1.68,4.44a3.55,3.55,0,0,0,2.33.79,3.06,3.06,0,0,0,2.34-1,4.6,4.6,0,0,0,.87-1.45Zm-4.61-6.45a5.21,5.21,0,0,0-1.13-3.31A3.18,3.18,0,0,0,380.88,83a3,3,0,0,0-2.52,1.19,6.61,6.61,0,0,0-1.12,3.25Z"/><path d="M221.88,129H217v9.31h-4.82V112.4h10.1a7.66,7.66,0,0,1,5.57,2q2.08,2,2.08,6.2,0,4.59-2.08,6.49A8.45,8.45,0,0,1,221.88,129Zm2.27-5.4a4,4,0,0,0,.94-2.95,3.7,3.7,0,0,0-1-2.88,3.8,3.8,0,0,0-2.67-.87H217v7.63h4.51A3.69,3.69,0,0,0,224.15,123.6Z"/><path d="M248.66,127.06v11.25h-4.58V126.66a5.6,5.6,0,0,0-.47-2.5,2.31,2.31,0,0,0-2.33-1.33,3.08,3.08,0,0,0-2.7,1.33,6.59,6.59,0,0,0-.92,3.78v10.37H233.2V112.49h4.46v9.16a5.44,5.44,0,0,1,5-3,6.69,6.69,0,0,1,2.89.62,5.53,5.53,0,0,1,3,4.08A29.21,29.21,0,0,1,248.66,127.06Z"/><path d="M267.15,121.58a13,13,0,0,1,0,14.41,7.63,7.63,0,0,1-6.59,3q-4.43,0-6.6-3a13,13,0,0,1,0-14.41,8.67,8.67,0,0,1,13.19,0Zm-6.61,1.2a3.44,3.44,0,0,0-3,1.55,9.85,9.85,0,0,0,0,8.89,3.71,3.71,0,0,0,6.05,0,9.93,9.93,0,0,0,0-8.89A3.42,3.42,0,0,0,260.54,122.78Z"/><path d="M280.38,134.75v3.74l-2.12.09q-3.18.12-4.35-1.23a4,4,0,0,1-.75-2.66V122.9h-2.39v-3.57h2.39V114h4.43v5.34h2.79v3.57h-2.79V133a2.47,2.47,0,0,0,.27,1.47c.18.19.73.29,1.64.29h.43Z"/><path d="M297.56,121.58a13,13,0,0,1,0,14.41,7.63,7.63,0,0,1-6.59,3q-4.43,0-6.59-3a13,13,0,0,1,0-14.41q2.16-3,6.59-3A7.56,7.56,0,0,1,297.56,121.58Zm-6.61,1.2a3.44,3.44,0,0,0-3,1.55,9.85,9.85,0,0,0,0,8.89,3.71,3.71,0,0,0,6.05,0,9.85,9.85,0,0,0,0-8.89A3.42,3.42,0,0,0,291,122.78Z"/><path d="M322.1,129h-4.92v9.31h-4.82V112.4h10.11a7.65,7.65,0,0,1,5.56,2q2.09,2,2.08,6.2,0,4.59-2.08,6.49A8.45,8.45,0,0,1,322.1,129Zm2.27-5.4a4,4,0,0,0,.94-2.95,3.7,3.7,0,0,0-.95-2.88,3.8,3.8,0,0,0-2.67-.87h-4.51v7.63h4.51A3.69,3.69,0,0,0,324.37,123.6Z"/><path d="M342,123.78a3.61,3.61,0,0,0-3.64,2,8.52,8.52,0,0,0-.52,3.41v9.15h-4.51V119.15h4.28v3.34a10.17,10.17,0,0,1,1.81-2.61,4.56,4.56,0,0,1,3.27-1.18h.21l.39,0v5.14c-.29,0-.54-.06-.76-.07S342.14,123.78,342,123.78Z"/><path d="M360.23,121.58a13,13,0,0,1,0,14.41q-2.18,3-6.6,3a7.63,7.63,0,0,1-6.59-3,13,13,0,0,1,0-14.41,8.67,8.67,0,0,1,13.19,0Zm-6.61,1.2a3.44,3.44,0,0,0-3,1.55,9.85,9.85,0,0,0,0,8.89,3.71,3.71,0,0,0,6.05,0,9.93,9.93,0,0,0,0-8.89A3.42,3.42,0,0,0,353.62,122.78Z"/><path d="M380.44,126h-4.59a4.85,4.85,0,0,0-.65-1.94,2.59,2.59,0,0,0-2.34-1.16,3.14,3.14,0,0,0-3.1,2.52,11.75,11.75,0,0,0-.44,3.55,10.8,10.8,0,0,0,.44,3.39,3,3,0,0,0,3,2.39,2.5,2.5,0,0,0,2.23-.95,5.12,5.12,0,0,0,.81-2.46h4.58a9.09,9.09,0,0,1-1.48,4.33,7,7,0,0,1-6.25,3.28q-4.14,0-6.09-2.74a12,12,0,0,1-1.95-7.12q0-4.94,2.16-7.68a7.13,7.13,0,0,1,5.94-2.74,8.33,8.33,0,0,1,5.28,1.61Q380.07,121.93,380.44,126Z"/><path d="M398.21,132.69a6.7,6.7,0,0,1-1.59,3.46,7.4,7.4,0,0,1-6.17,2.8,8.2,8.2,0,0,1-5.78-2.36c-1.66-1.57-2.5-4.12-2.5-7.66,0-3.32.76-5.86,2.26-7.63a7.34,7.34,0,0,1,5.86-2.66,8.2,8.2,0,0,1,3.86.9,7.12,7.12,0,0,1,2.83,2.83,10.45,10.45,0,0,1,1.3,4,27.54,27.54,0,0,1,.15,3.79H386.69c.06,1.93.6,3.27,1.62,4a3.53,3.53,0,0,0,2.23.72,3,3,0,0,0,2.25-.88,4.17,4.17,0,0,0,.84-1.32Zm-4.44-5.87a4.66,4.66,0,0,0-1.08-3,3.16,3.16,0,0,0-2.4-1,2.87,2.87,0,0,0-2.41,1.09,5.72,5.72,0,0,0-1.08,2.95Z"/><path d="M413.26,120c1.34,1,2.12,2.62,2.31,5h-4.48a3.11,3.11,0,0,0-.49-1.53,2.89,2.89,0,0,0-2.51-1A3.34,3.34,0,0,0,406,123a1.53,1.53,0,0,0-.62,1.2,1.32,1.32,0,0,0,.66,1.24,25.69,25.69,0,0,0,4.67,1.39,8.21,8.21,0,0,1,4,2.13,5.09,5.09,0,0,1,1.33,3.6,6.14,6.14,0,0,1-1.9,4.65c-1.26,1.2-3.22,1.81-5.86,1.81s-4.69-.64-6-1.91a6.52,6.52,0,0,1-1.93-4.86h4.55a3.62,3.62,0,0,0,.61,1.9,3.92,3.92,0,0,0,3.09,1,4.31,4.31,0,0,0,2.1-.44,1.42,1.42,0,0,0,.78-1.32,1.46,1.46,0,0,0-.63-1.28,22.9,22.9,0,0,0-4.68-1.51,9.22,9.22,0,0,1-4.1-2,4.63,4.63,0,0,1-1.2-3.44,6.27,6.27,0,0,1,1.87-4.56,7,7,0,0,1,5.24-1.91A8.91,8.91,0,0,1,413.26,120Z"/><path d="M431.18,120c1.34,1,2.12,2.62,2.31,5H429a3.11,3.11,0,0,0-.49-1.53,2.89,2.89,0,0,0-2.51-1,3.34,3.34,0,0,0-2.09.51,1.53,1.53,0,0,0-.62,1.2,1.32,1.32,0,0,0,.66,1.24,25.69,25.69,0,0,0,4.67,1.39,8.3,8.3,0,0,1,4,2.13,5.13,5.13,0,0,1,1.32,3.6,6.14,6.14,0,0,1-1.9,4.65c-1.26,1.2-3.22,1.81-5.86,1.81s-4.69-.64-6-1.91a6.52,6.52,0,0,1-1.93-4.86h4.55a3.62,3.62,0,0,0,.61,1.9,3.92,3.92,0,0,0,3.09,1,4.31,4.31,0,0,0,2.1-.44,1.42,1.42,0,0,0,.78-1.32,1.46,1.46,0,0,0-.63-1.28,22.9,22.9,0,0,0-4.68-1.51,9.22,9.22,0,0,1-4.1-2,4.63,4.63,0,0,1-1.2-3.44,6.27,6.27,0,0,1,1.87-4.56,7,7,0,0,1,5.24-1.91A8.91,8.91,0,0,1,431.18,120Z"/><path d="M451.59,121.58a13,13,0,0,1,0,14.41,7.63,7.63,0,0,1-6.59,3q-4.42,0-6.6-3a13,13,0,0,1,0-14.41,8.67,8.67,0,0,1,13.19,0Zm-6.61,1.2a3.44,3.44,0,0,0-3,1.55,9.85,9.85,0,0,0,0,8.89,3.71,3.71,0,0,0,6.05,0,9.93,9.93,0,0,0,0-8.89A3.42,3.42,0,0,0,445,122.78Z"/><path d="M465.59,123.78c-1.8,0-3,.65-3.63,2a8.34,8.34,0,0,0-.52,3.41v9.15h-4.52V119.15h4.28v3.34a10.43,10.43,0,0,1,1.81-2.61,4.58,4.58,0,0,1,3.27-1.18h.21l.39,0v5.14c-.28,0-.53-.06-.75-.07S465.73,123.78,465.59,123.78Z"/><path d="M481.32,120c1.35,1,2.12,2.62,2.32,5h-4.49a3.11,3.11,0,0,0-.49-1.53,2.89,2.89,0,0,0-2.51-1,3.34,3.34,0,0,0-2.09.51,1.53,1.53,0,0,0-.62,1.2,1.32,1.32,0,0,0,.66,1.24,25.69,25.69,0,0,0,4.67,1.39,8.25,8.25,0,0,1,4,2.13,5.13,5.13,0,0,1,1.32,3.6,6.11,6.11,0,0,1-1.9,4.65C481,138.36,479,139,476.35,139s-4.68-.64-6-1.91a6.56,6.56,0,0,1-1.93-4.86H473a3.71,3.71,0,0,0,.61,1.9,3.92,3.92,0,0,0,3.09,1,4.31,4.31,0,0,0,2.1-.44,1.42,1.42,0,0,0,.78-1.32,1.46,1.46,0,0,0-.63-1.28,22.94,22.94,0,0,0-4.67-1.51,9.26,9.26,0,0,1-4.11-2,4.63,4.63,0,0,1-1.2-3.44,6.27,6.27,0,0,1,1.87-4.56,7,7,0,0,1,5.24-1.91A8.91,8.91,0,0,1,481.32,120Z"/></svg>